<svg xmlns="http://www.w3.org/2000/svg" height="20" viewBox="0 96 960 960" width="20"><path d="m375.521 699.957 275.87-175.914-275.87-175.913v351.827Zm-49.695 231.827V827.305H174.783q-41.005 0-69.503-28.51-28.498-28.51-28.498-69.532V318.5q0-41.022 28.498-69.37 28.498-28.348 69.503-28.348h610.434q41.005 0 69.503 28.51 28.498 28.51 28.498 69.531v410.764q0 41.022-28.498 69.37-28.498 28.348-69.503 28.348H634.174v104.479H325.826Zm-151.043-202.48h610.434V318.783H174.783v410.521Zm0 0V318.783v410.521Z"/></svg>